# xmcd CD database file
#
# Track frame offsets:
#	150
#	26752
#	49242
#
# Disc length: 4440 seconds
#
# Revision: 0
# Processed by: cddbd v1.5PL3 Copyright (c) Steve Scherf et al.
# Submitted via: CDex 1.51
#
DISCID=21115603
DTITLE=岩瀬敬吾 - レディオステレオ
DYEAR=2003
DGENRE=J-POP
TTITLE0=Radiostereo
TTITLE1=BITTER (alternative take)
TTITLE2=DataTrack
EXTD=YEAR: 2003
EXTT0=
EXTT1=
EXTT2=
PLAYORDER=
